<svg width="22" height="20" viewBox="0 0 22 20" fill="none" xmlns="http://www.w3.org/2000/svg">
<g id="camera_video_FILL0_wght400_GRAD0_opsz24 1" clip-path="url(#clip0_12_446)">
<path id="Vector" d="M8.04794 17.5833H13.9521L13.4104 15.4167H8.5896L8.04794 17.5833ZM7.75002 13.25H14.25C15.7486 13.25 17.0261 12.7219 18.0823 11.6656C19.1386 10.6094 19.6667 9.33194 19.6667 7.83333C19.6667 6.33472 19.1386 5.05729 18.0823 4.00104C17.0261 2.94479 15.7486 2.41667 14.25 2.41667H7.75002C6.25141 2.41667 4.97398 2.94479 3.91773 4.00104C2.86148 5.05729 2.33335 6.33472 2.33335 7.83333C2.33335 9.33194 2.86148 10.6094 3.91773 11.6656C4.97398 12.7219 6.25141 13.25 7.75002 13.25ZM11 10C10.4042 10 9.89412 9.78785 9.46981 9.36354C9.04551 8.93924 8.83335 8.42917 8.83335 7.83333C8.83335 7.2375 9.04551 6.72743 9.46981 6.30312C9.89412 5.87882 10.4042 5.66667 11 5.66667C11.5959 5.66667 12.1059 5.87882 12.5302 6.30312C12.9545 6.72743 13.1667 7.2375 13.1667 7.83333C13.1667 8.42917 12.9545 8.93924 12.5302 9.36354C12.1059 9.78785 11.5959 10 11 10ZM5.04169 19.75V17.5833H5.8271L6.39585 15.3083C4.60835 15.0014 3.12328 14.1483 1.94065 12.749C0.758006 11.3497 0.166687 9.71111 0.166687 7.83333C0.166687 5.72083 0.902451 3.92882 2.37398 2.45729C3.84551 0.985764 5.63752 0.25 7.75002 0.25H14.25C16.3625 0.25 18.1545 0.985764 19.6261 2.45729C21.0976 3.92882 21.8334 5.72083 21.8334 7.83333C21.8334 9.71111 21.242 11.3497 20.0594 12.749C18.8768 14.1483 17.3917 15.0014 15.6042 15.3083L16.1729 17.5833H17V19.75H5.04169ZM11 12.1667C12.1917 12.1667 13.2118 11.7424 14.0604 10.8938C14.909 10.0451 15.3334 9.025 15.3334 7.83333C15.3334 6.64167 14.909 5.62153 14.0604 4.77292C13.2118 3.92431 12.1917 3.5 11 3.5C9.80835 3.5 8.78821 3.92431 7.9396 4.77292C7.09099 5.62153 6.66669 6.64167 6.66669 7.83333C6.66669 9.025 7.09099 10.0451 7.9396 10.8938C8.78821 11.7424 9.80835 12.1667 11 12.1667Z" fill="white"/>
<path id="Vector_2" d="M5.81358 6.43855C5.60594 6.64619 5.34865 6.75001 5.04171 6.75001C4.73476 6.75001 4.47747 6.64619 4.26983 6.43855C4.06219 6.23091 3.95837 5.97362 3.95837 5.66668C3.95837 5.35973 4.06219 5.10244 4.26983 4.8948C4.47747 4.68716 4.73476 4.58334 5.04171 4.58334C5.34865 4.58334 5.60594 4.68716 5.81358 4.8948C6.02122 5.10244 6.12504 5.35973 6.12504 5.66668C6.12504 5.97362 6.02122 6.23091 5.81358 6.43855Z" fill="white"/>
</g>
<defs>
<clipPath id="clip0_12_446">
<rect width="22" height="20" fill="white"/>
</clipPath>
</defs>
</svg>
