<svg width="50" height="50" viewBox="0 0 50 50" fill="none" xmlns="http://www.w3.org/2000/svg">
	<g id="icon">
		<g id="Vector">
			<path d="M42 28.75C42 27.7188 41.125 26.875 40.0556 26.875H36.1667V30.625H40.0556C41.125 30.625 42 29.7812 42 28.75Z" fill="#8781BD" />
			<path d="M40.0556 34.375H36.1667V38.125H40.0556C41.125 38.125 42 37.2812 42 36.25C42 35.2188 41.125 34.375 40.0556 34.375Z" fill="#8781BD" />
			<path d="M24.5 28.75H20.6111V36.25H24.5C24.5 38.3125 26.25 40 28.3889 40H34.2222V25H28.3889C26.25 25 24.5 26.6875 24.5 28.75Z" fill="#8781BD" />
			<path d="M10.8889 26.875C10.8889 24.8125 12.6389 23.125 14.7778 23.125H17.6944C21.4472 23.125 24.5 20.1812 24.5 16.5625C24.5 12.9438 21.4472 10 17.6944 10H10.8889C9.81944 10 8.94444 10.8437 8.94444 11.875C8.94444 12.9062 9.81944 13.75 10.8889 13.75H17.6944C19.3083 13.75 20.6111 15.0062 20.6111 16.5625C20.6111 18.1187 19.3083 19.375 17.6944 19.375H14.7778C10.4806 19.375 7 22.7312 7 26.875C7 31.0187 10.4806 34.375 14.7778 34.375H18.6667V30.625H14.7778C12.6389 30.625 10.8889 28.9375 10.8889 26.875Z" fill="#8781BD" />
		</g>
	</g>
</svg>
