<svg width="22" height="22" viewBox="0 0 22 22" fill="none" xmlns="http://www.w3.org/2000/svg">
<g id="icon">
<path id="Vector 1" d="M3.73424 6.77442L9.90086 2.11628C10.6639 1.53991 11.7199 1.5518 12.4698 2.1452L18.3032 6.76144C18.8065 7.15974 19.1 7.76634 19.1 8.40819V17C19.1 18.1598 18.1598 19.1 17 19.1H5C3.8402 19.1 2.9 18.1598 2.9 17V8.45009C2.9 7.79164 3.20884 7.1713 3.73424 6.77442L3.19177 6.05628L3.73424 6.77442Z" stroke="#4F4F4F" stroke-width="1.8"/>
<path id="Rectangle 584" d="M8.8 13C8.8 12.8895 8.88954 12.8 9 12.8H13C13.1105 12.8 13.2 12.8895 13.2 13V19C13.2 19.1105 13.1105 19.2 13 19.2H9C8.88954 19.2 8.8 19.1105 8.8 19V13Z" stroke="#4F4F4F" stroke-width="1.6"/>
</g>
</svg>
