<svg width="50" height="50" viewBox="0 0 50 50" fill="none" xmlns="http://www.w3.org/2000/svg">
<path d="M20.9868 15.754C20.1235 15.754 19.3845 15.4478 18.7698 14.8354C18.1551 14.2231 17.8477 13.4869 17.8477 12.627C17.8477 11.7671 18.1551 11.0309 18.7698 10.4186C19.3845 9.80619 20.1235 9.5 20.9868 9.5C21.85 9.5 22.589 9.80619 23.2037 10.4186C23.8185 11.0309 24.1258 11.7671 24.1258 12.627C24.1258 13.4869 23.8185 14.2231 23.2037 14.8354C22.589 15.4478 21.85 15.754 20.9868 15.754ZM28.8344 40.77V32.9525H20.9868C20.1235 32.9525 19.3845 32.6463 18.7698 32.0339C18.1551 31.4216 17.8477 30.6854 17.8477 29.8255V20.4445C17.8477 19.5846 18.1551 18.8484 18.7698 18.2361C19.3845 17.6237 20.1235 17.3175 20.9868 17.3175C21.6146 17.3175 22.1574 17.4543 22.6151 17.7279C23.0729 18.0015 23.5634 18.438 24.0866 19.0373C25.5253 20.7572 26.8267 21.9363 27.9908 22.5748C29.1549 23.2132 30.4825 23.5454 31.9735 23.5715V26.6985C30.5871 26.6985 29.1876 26.3988 27.775 25.7995C26.3624 25.2001 25.146 24.4835 24.1258 23.6497V29.0438H28.8344C29.6977 29.0438 30.4367 29.3499 31.0514 29.9623C31.6661 30.5747 31.9735 31.3108 31.9735 32.1707V40.77H28.8344ZM17.8477 40.77C15.6765 40.77 13.8257 40.0078 12.2954 38.4834C10.7651 36.959 10 35.1153 10 32.9525C10 31.0763 10.5951 29.4216 11.7853 27.9884C12.9756 26.5552 14.4732 25.6562 16.2781 25.2914V28.4965C15.3626 28.8613 14.6105 29.4411 14.0219 30.2359C13.4334 31.0307 13.1391 31.9362 13.1391 32.9525C13.1391 34.2554 13.5969 35.3629 14.5124 36.2749C15.428 37.187 16.5397 37.643 17.8477 37.643C18.8679 37.643 19.7769 37.3498 20.5748 36.7635C21.3726 36.1772 21.9546 35.428 22.3209 34.516H25.5384C25.1722 36.314 24.2697 37.8059 22.831 38.9915C21.3922 40.1772 19.7311 40.77 17.8477 40.77Z" fill="#8781BD"/>
<path d="M34.6 19.8L34.6 27L40 16.2L36.4 16.2L36.4 9L31 19.8L34.6 19.8Z" fill="#8781BD"/>
</svg>
