<svg width="50" height="50" viewBox="0 0 50 50" fill="none" xmlns="http://www.w3.org/2000/svg">
<g id="icon">
<path id="Vector" d="M35.3951 18.6667C34.3818 18.6667 33.5594 19.4833 33.5594 20.4896V28.875H32.8252C30.4021 28.875 28.4196 30.8438 28.4196 33.25H26.951C26.951 30.275 29.1979 27.825 32.0909 27.4604V11.7396C32.0909 10.7333 31.2685 9.91667 30.2552 9.91667C29.242 9.91667 28.4196 10.7333 28.4196 11.7396V23.0417H26.951V8.82292C26.951 7.81667 26.1287 7 25.1154 7C24.1021 7 23.2797 7.81667 23.2797 8.82292V23.0417H21.8112V11.0104C21.8112 10.0042 20.9888 9.1875 19.9755 9.1875C18.9622 9.1875 18.1399 10.0042 18.1399 11.0104V24.5H16.6713V15.3854C16.6713 14.3792 15.849 13.5625 14.8357 13.5625C13.8224 13.5625 13 14.3792 13 15.3854V29.9688C13 36.6188 18.4189 42 25.1154 42C31.8119 42 37.2308 36.6188 37.2308 29.9688V20.4896C37.2308 19.4833 36.4084 18.6667 35.3951 18.6667Z" fill="#8781BD"/>
</g>
</svg>
