<svg width="24" height="24" viewBox="0 0 24 24" fill="none" xmlns="http://www.w3.org/2000/svg">
<g id="pin">
<g id="Vector">
<path fill-rule="evenodd" clip-rule="evenodd" d="M7.45716 14.8436C4.82193 12.3193 4.71955 8.12359 7.22849 5.47222C9.73743 2.82084 13.9076 2.71783 16.5428 5.24214C19.1781 7.76645 19.2804 11.9622 16.7715 14.6135L12.2287 19.4143L7.45716 14.8436ZM15.7112 13.5978L12.1779 17.3318L8.46668 13.7768C6.41706 11.8134 6.33743 8.5501 8.28883 6.48792C10.2402 4.42574 13.4837 4.34562 15.5333 6.30897C17.5829 8.27232 17.6626 11.5357 15.7112 13.5978Z" fill="#333333"/>
<path fill-rule="evenodd" clip-rule="evenodd" d="M16.2589 5.54219C13.7884 3.17565 9.87884 3.27222 7.52671 5.75788C5.17458 8.24355 5.27056 12.177 7.74109 14.5436L12.2144 18.8286L16.4733 14.3279C18.8254 11.8422 18.7294 7.90873 16.2589 5.54219ZM6.93027 5.18655C9.59602 2.36946 14.0268 2.26002 16.8268 4.94209C19.6267 7.62417 19.7355 12.0821 17.0697 14.8992L12.243 20L7.17324 15.1437C4.3733 12.4616 4.26452 8.00364 6.93027 5.18655ZM15.2494 6.60902C13.3645 4.80344 10.3816 4.87712 8.58704 6.77359C6.79246 8.67006 6.86569 11.6712 8.75061 13.4767L12.1636 16.746L15.413 13.3122C17.2075 11.4157 17.1343 8.4146 15.2494 6.60902ZM7.99061 6.20225C10.0988 3.97436 13.6029 3.8878 15.8172 6.00892C18.0316 8.13005 18.1176 11.6556 16.0094 13.8835L12.1922 17.9175L8.18276 14.0768C5.96843 11.9557 5.8824 8.43015 7.99061 6.20225Z" fill="#333333"/>
<path fill-rule="evenodd" clip-rule="evenodd" d="M13.75 9.8C13.75 10.7389 12.9665 11.5 12 11.5C11.0335 11.5 10.25 10.7389 10.25 9.8C10.25 8.86112 11.0335 8.1 12 8.1C12.9665 8.1 13.75 8.86112 13.75 9.8Z" fill="#333333"/>
</g>
</g>
</svg>
