<svg width="64" height="64" viewBox="0 0 64 64" fill="none" xmlns="http://www.w3.org/2000/svg">
<rect width="64" height="64" rx="32" fill="#9069FF"/>
<path d="M26.0123 38.0414V31.7424L18.5833 24.3879C18.223 24.0133 18 23.5026 18 22.9919C18 21.8853 18.9093 21 20.0074 21C20.5221 21 21.0539 21.2043 21.4142 21.5788L30.0098 30.091V38.0414C30.0098 39.131 30.902 40.0333 32.0172 40.0333C33.1152 40.0333 33.9902 39.131 33.9902 38.0414C33.9902 36.8838 33.9902 32.2531 33.9902 30.091L42.5858 21.5788C42.9461 21.2043 43.4779 21 43.9926 21C45.0907 21 46 21.8853 46 22.9919C46 23.5026 45.777 24.0133 45.4167 24.3879L37.9877 31.7424V38.0414C37.9877 41.3272 35.2941 44 32.0172 44C28.7059 44 26.0123 41.3272 26.0123 38.0414Z" fill="white"/>
<path d="M46 42.0081C46 43.0977 45.0907 44 43.9926 44C42.8946 44 41.9853 43.0977 41.9853 42.0081V27.7757L45.3995 24.3879C45.7598 24.0133 45.9828 23.5026 45.9828 22.9919V42.0081H46Z" fill="white"/>
<path d="M18.5833 24.3879C18.223 24.0133 18 23.5026 18 22.9919V42.0081C18 43.0977 18.9093 44 20.0074 44C21.1054 44 22.0147 43.0977 22.0147 42.0081V27.7757L18.5833 24.3879Z" fill="white"/>
</svg>
