<svg width="158" height="131" viewBox="0 0 158 131" fill="none" xmlns="http://www.w3.org/2000/svg">
<path d="M56.119 87.6839V63.0355L27.2656 34.2568C25.8663 32.7913 25 30.7927 25 28.7942C25 24.4641 28.5317 21 32.7964 21C34.7955 21 36.8612 21.7994 38.2606 23.265L71.6452 56.5736V87.6839C71.6452 91.9474 75.1103 95.4782 79.4416 95.4782C83.7063 95.4782 87.1048 91.9474 87.1048 87.6839C87.1048 83.154 87.1048 65.034 87.1048 56.5736L120.489 23.265C121.889 21.7994 123.955 21 125.954 21C130.218 21 133.75 24.4641 133.75 28.7942C133.75 30.7927 132.884 32.7913 131.484 34.2568L102.631 63.0355V87.6839C102.631 100.541 92.1691 111 79.4416 111C66.5809 111 56.119 100.541 56.119 87.6839Z" fill="#7670B3"/>
<path d="M133.75 103.206C133.75 107.469 130.218 111 125.954 111C121.689 111 118.157 107.469 118.157 103.206V47.5137L131.418 34.2569C132.817 32.7913 133.683 30.7928 133.683 28.7943V103.206H133.75Z" fill="#B0ACD5"/>
<path d="M27.2656 34.2569C25.8663 32.7913 25 30.7928 25 28.7943V103.206C25 107.469 28.5317 111 32.7964 111C37.0611 111 40.5928 107.469 40.5928 103.206V47.5137L27.2656 34.2569Z" fill="#B0ACD5"/>
</svg>
