<svg width="120" height="14" viewBox="0 0 120 14" fill="none" xmlns="http://www.w3.org/2000/svg">
<g id="LOGO">
<g id="Vector">
<path d="M68.183 0C66.3623 0 64.8811 1.48113 64.8811 3.30189C64.8811 5.10943 66.3623 6.58868 68.183 6.58868C70.0038 6.58868 71.4849 5.10755 71.4849 3.30189C71.483 1.48113 70.0038 0 68.183 0Z" fill="#BBB3D8"/>
<path d="M85.7755 13.1906H74.7849C72.9641 13.1906 71.483 11.7094 71.483 9.88868V5.50189C71.483 3.68113 72.9641 2.2 74.7849 2.2H85.7755C86.3868 2.2 86.8755 2.68868 86.8755 3.3C86.8755 3.89811 86.3868 4.4 85.7755 4.4H74.7849C74.1736 4.4 73.6849 4.88868 73.6849 5.5V9.88868C73.6849 10.5 74.1736 10.9887 74.7849 10.9887H85.7755C86.3868 10.9887 86.8755 11.4906 86.8755 12.0887C86.8755 12.7019 86.3868 13.1906 85.7755 13.1906Z" fill="black"/>
<path d="M83.5736 6.60189C84.1849 6.60189 84.6736 7.09057 84.6736 7.70189C84.6736 8.3 84.1849 8.80189 83.5736 8.80189H76.9849C76.3736 8.80189 75.8849 8.3 75.8849 7.70189C75.8849 7.09057 76.3736 6.60189 76.9849 6.60189H83.5736Z" fill="#8F85AF"/>
<path d="M49.4906 5.50189C49.4906 3.68113 50.9717 2.2 52.7924 2.2H61.5811C63.4019 2.2 64.883 3.68113 64.883 5.50189C64.883 7.32264 63.4019 8.80377 61.5811 8.80377H57.1925C56.5943 8.80377 56.0925 9.29245 56.0925 9.90377C56.0925 10.5019 56.5943 11.0038 57.1925 11.0038H63.7811C64.3925 11.0038 64.8811 11.4925 64.8811 12.1038C64.8811 12.7019 64.3925 13.2038 63.7811 13.2038H57.1925C55.3717 13.2038 53.8906 11.7094 53.8906 9.90189C53.8906 8.08113 55.3717 6.6 57.1925 6.6H61.5811C62.1925 6.6 62.6811 6.09811 62.6811 5.5C62.6811 4.88868 62.1925 4.4 61.5811 4.4H52.7924C52.1943 4.4 51.6925 4.88868 51.6925 5.5C51.6925 6.81698 51.6925 11.4906 51.6925 12.1019C51.6925 12.7 51.2038 13.2019 50.5925 13.2019C49.9943 13.2019 49.4925 12.7 49.4925 12.1019V5.50189H49.4906Z" fill="black"/>
<path d="M69.283 12.1038C69.283 12.7019 68.7811 13.2038 68.183 13.2038C67.5717 13.2038 67.083 12.7019 67.083 12.1038V3.30189C67.083 2.69057 67.5717 2.20189 68.183 2.20189C68.7811 2.20189 69.283 2.69057 69.283 3.30189V12.1038Z" fill="black"/>
<path d="M46.1887 8.80377C46.8 8.80377 47.2887 8.30189 47.2887 7.70377C47.2887 7.09245 46.8 6.60377 46.1887 6.60377H37.4C36.7887 6.60377 36.3 7.09245 36.3 7.70377C36.3 8.30189 36.7887 8.80377 37.4 8.80377H46.1887Z" fill="#8F85AF"/>
<path d="M103.381 3.30189V8.80377C103.381 11.2226 101.398 13.1925 98.9792 13.1925C96.5604 13.1925 94.5774 11.2226 94.5774 8.80377V6.60189C94.5774 5.37925 93.5849 4.40189 92.3774 4.40189C91.1679 4.40189 90.1774 5.37925 90.1774 6.60189V12.0906C90.1774 12.7019 89.6887 13.1906 89.0774 13.1906C88.4792 13.1906 87.9774 12.7019 87.9774 12.0906V6.60189C87.9774 4.16981 89.9604 2.2 92.3792 2.2C94.8113 2.2 96.7811 4.16981 96.7811 6.60189V8.80189C96.7811 10.0113 97.7736 10.9887 98.9811 10.9887C100.191 10.9887 101.181 10.0113 101.181 8.80189V3.30189C101.181 2.69057 101.67 2.20189 102.281 2.20189C102.892 2.2 103.381 2.69057 103.381 3.30189Z" fill="black"/>
<path d="M23.0943 9.90377C23.0943 10.5019 23.583 11.0038 24.1943 11.0038C24.8057 11.0038 25.2943 10.5019 25.2943 9.90377V5.50189L30.0226 0.773585C30.2132 0.569811 30.5113 0.44717 30.7962 0.44717C31.3943 0.44717 31.8962 0.949057 31.8962 1.54717C31.8962 1.84528 31.7736 2.13208 31.5698 2.33585L27.4943 6.41132V9.90189C27.4943 11.7094 26.0132 13.2038 24.1925 13.2038C22.3717 13.2038 20.8906 11.7094 20.8906 9.90189V6.41132L16.8151 2.33585C16.6113 2.13208 16.4887 1.84717 16.4887 1.54717C16.4887 0.949057 16.9906 0.44717 17.5887 0.44717C17.8736 0.44717 18.1736 0.569811 18.3623 0.773585L23.0906 5.50189V9.90377H23.0943Z" fill="#796BAF"/>
<path d="M0 1.54906C0 0.950943 0.488679 0.449057 1.1 0.449057C1.38491 0.449057 1.66981 0.571698 1.87358 0.775472L6.58679 5.50377V9.90566C6.58679 10.5038 7.08868 11.0057 7.68679 11.0057C8.29811 11.0057 8.78679 10.5038 8.78679 9.90566V5.50189L13.517 0.773585C13.7208 0.569811 14.0057 0.44717 14.2906 0.44717C14.9019 0.44717 15.3906 0.949057 15.3906 1.54717V12.1019C15.3906 12.7 14.9019 13.2019 14.2906 13.2019C13.6925 13.2019 13.1906 12.7 13.1906 12.1019V4.21132L10.9906 6.41132V9.90189C10.9906 11.7094 9.50943 13.2038 7.68868 13.2038C5.88113 13.2038 4.38679 11.7094 4.38679 9.90189V6.41132L2.2 4.21132V12.1038C2.2 12.7019 1.69811 13.2038 1.1 13.2038C0.488679 13.2038 0 12.7019 0 12.1038V1.54906Z" fill="#BBB3D8"/>
<path d="M36.2981 2.2C34.4774 2.2 32.9962 3.68113 32.9962 5.50189C32.9962 7.60755 32.9962 9.7 32.9962 12.1038C32.9962 12.7019 33.4849 13.2038 34.0962 13.2038C34.6943 13.2038 35.1962 12.7019 35.1962 12.1038V5.50189C35.1962 4.89057 35.6849 4.40189 36.2962 4.40189H47.2868C47.8981 4.40189 48.3868 3.9 48.3868 3.30189C48.3868 2.69057 47.8981 2.20189 47.2868 2.20189H36.2981V2.2Z" fill="black"/>
<path d="M112.185 2.2C113.162 2.2 113.964 2.2 114.385 2.2C117.415 2.2 119.874 4.6717 119.874 7.70189C119.874 10.7321 117.415 13.1906 114.385 13.1906H112.185V10.9906H114.385C116.192 10.9906 117.687 9.50943 117.687 7.70377C117.687 5.88302 116.192 4.40189 114.385 4.40189H112.185V2.2ZM104.481 12.0906V3.30189C104.481 2.69057 104.97 2.20189 105.581 2.20189C107.198 2.20189 110.091 2.20189 112.183 2.20189V4.40189H106.681V10.9906H112.183V13.1906H105.581C104.97 13.1906 104.481 12.7019 104.481 12.0906Z" fill="black"/>
</g>
</g>
</svg>
