<svg width="43" height="64" viewBox="0 0 43 64" fill="none" xmlns="http://www.w3.org/2000/svg">
<circle cx="21.5" cy="42.5" r="21.5" fill="#9069FF" fill-opacity="0.18"/>
<path d="M8.78107 31.3573C1.97732 24.7633 1.71246 13.7989 8.19085 6.87222C14.6645 -0.0494401 25.4202 -0.317783 32.2189 6.2714C39.0227 12.8654 39.2875 23.8298 32.8092 30.7565L21.0899 43.2867L8.78107 31.3573Z" fill="#9069FF" stroke="#605198"/>
<path d="M12 13.2093C12 12.5529 12.5398 12.0021 13.215 12.0021C13.5297 12.0021 13.8444 12.1367 14.0695 12.3603L19.2756 17.5495V22.3804C19.2756 23.0368 19.83 23.5876 20.4906 23.5876C21.1659 23.5876 21.7057 23.0368 21.7057 22.3804V17.5474L26.9305 12.3582C27.1556 12.1346 27.4703 12 27.785 12C28.4602 12 29 12.5508 29 13.2072V24.7907C29 25.4471 28.4602 25.9979 27.785 25.9979C27.1243 25.9979 26.5699 25.4471 26.5699 24.7907V16.131L24.1399 18.5455V22.3763C24.1399 24.36 22.5039 26 20.4927 26C18.4961 26 16.8455 24.36 16.8455 22.3763V18.5455L14.4301 16.131V24.7928C14.4301 25.4492 13.8757 26 13.215 26C12.5398 26 12 25.4492 12 24.7928V13.2093Z" fill="white"/>
</svg>
