<svg xmlns="http://www.w3.org/2000/svg" width="62" height="62" viewBox="0 0 62 62" fill="none">
    <path d="M25.8334 42.6251L41.3334 31.0001L25.8334 19.3751V42.6251ZM31 5.16675C16.74 5.16675 5.16669 16.7401 5.16669 31.0001C5.16669 45.2601 16.74 56.8334 31 56.8334C45.26 56.8334 56.8334 45.2601 56.8334 31.0001C56.8334 16.7401 45.26 5.16675 31 5.16675ZM31 51.6668C19.6075 51.6668 10.3334 42.3926 10.3334 31.0001C10.3334 19.6076 19.6075 10.3334 31 10.3334C42.3925 10.3334 51.6667 19.6076 51.6667 31.0001C51.6667 42.3926 42.3925 51.6668 31 51.6668Z" fill="white"/>
</svg>