<svg width="22" height="22" viewBox="0 0 22 22" fill="none" xmlns="http://www.w3.org/2000/svg">
<g id="ico" clip-path="url(#clip0_8_202)">
<circle id="Ellipse 2" cx="11" cy="11" r="10.1" stroke="#4F4F4F" stroke-width="1.8"/>
<g id="Vector">
<path d="M11.9212 17.1989C11.6554 17.4647 11.33 17.5976 10.945 17.5976C10.56 17.5976 10.2346 17.4647 9.96874 17.1989C9.7029 16.9331 9.56999 16.6077 9.56999 16.2228C9.56999 15.8378 9.7029 15.5124 9.96874 15.2466C10.2346 14.9808 10.56 14.8479 10.945 14.8479C11.33 14.8479 11.6554 14.9808 11.9212 15.2466C12.1871 15.5124 12.32 15.8378 12.32 16.2228C12.32 16.6077 12.1871 16.9331 11.9212 17.1989Z" fill="#4F4F4F"/>
<path d="M11.99 13.3631H9.95499C9.95499 12.3916 10.0467 11.7225 10.23 11.3559C10.4133 10.9893 10.9083 10.4485 11.715 9.73365C12.045 9.45869 12.32 9.16081 12.54 8.84002C12.76 8.51923 12.87 8.17553 12.87 7.80891C12.87 7.42397 12.7233 7.0711 12.43 6.75031C12.1367 6.42952 11.6967 6.26913 11.11 6.26913C10.45 6.26913 9.95957 6.4616 9.63874 6.84655C9.3179 7.23149 9.11165 7.58894 9.01999 7.9189L7.20499 7.204C7.46165 6.4341 7.9154 5.77419 8.56624 5.22427C9.21707 4.67435 10.065 4.39938 11.11 4.39938C12.1367 4.39938 13.0258 4.67435 13.7775 5.22427C14.5292 5.77419 14.905 6.56242 14.905 7.58894C14.905 8.19386 14.7675 8.71171 14.4925 9.14248C14.2175 9.57325 13.8417 10.0269 13.365 10.5035C12.7233 11.1085 12.3337 11.5851 12.1962 11.9333C12.0587 12.2816 11.99 12.7582 11.99 13.3631Z" fill="#4F4F4F"/>
</g>
</g>
<defs>
<clipPath id="clip0_8_202">
<rect width="22" height="22" fill="white"/>
</clipPath>
</defs>
</svg>
