<svg width="24" height="24" viewBox="0 0 24 24" fill="none" xmlns="http://www.w3.org/2000/svg">
<g id="record" clip-path="url(#clip0_12_354)">
<g id="Vector" filter="url(#filter0_dd_12_354)">
<path d="M3.95 17.95C3.33333 17.1167 2.85417 16.1958 2.5125 15.1875C2.17083 14.1792 2 13.1167 2 12C2 10.8833 2.16667 9.825 2.5 8.825C2.83333 7.825 3.30833 6.90833 3.925 6.075L5.375 7.5C4.94167 8.13333 4.60417 8.82917 4.3625 9.5875C4.12083 10.3458 4 11.15 4 12C4 12.85 4.12083 13.6583 4.3625 14.425C4.60417 15.1917 4.94167 15.8917 5.375 16.525L3.95 17.95ZM12 22C10.8833 22 9.825 21.8333 8.825 21.5C7.825 21.1667 6.90833 20.6917 6.075 20.075L7.5 18.625C8.13333 19.0583 8.82917 19.3958 9.5875 19.6375C10.3458 19.8792 11.15 20 12 20C12.85 20 13.6542 19.8792 14.4125 19.6375C15.1708 19.3958 15.8667 19.0583 16.5 18.625L17.925 20.075C17.0917 20.6917 16.175 21.1667 15.175 21.5C14.175 21.8333 13.1167 22 12 22ZM20.05 17.95L18.625 16.525C19.0583 15.8917 19.3958 15.1917 19.6375 14.425C19.8792 13.6583 20 12.85 20 12C20 11.15 19.8792 10.3458 19.6375 9.5875C19.3958 8.82917 19.0583 8.13333 18.625 7.5L20.075 6.075C20.6917 6.90833 21.1667 7.825 21.5 8.825C21.8333 9.825 22 10.8833 22 12C22 13.1167 21.8292 14.1792 21.4875 15.1875C21.1458 16.1958 20.6667 17.1167 20.05 17.95ZM7.475 5.375L6.05 3.95C6.88333 3.33333 7.80417 2.85417 8.8125 2.5125C9.82083 2.17083 10.8833 2 12 2C13.1333 2 14.2 2.17083 15.2 2.5125C16.2 2.85417 17.1167 3.33333 17.95 3.95L16.525 5.375C15.8917 4.94167 15.1917 4.60417 14.425 4.3625C13.6583 4.12083 12.85 4 12 4C11.15 4 10.3417 4.12083 9.575 4.3625C8.80833 4.60417 8.10833 4.94167 7.475 5.375Z" fill="white"/>
</g>
<path id="Vector_2" d="M9.8775 14.1225C10.4625 14.7075 11.17 15 12 15C12.83 15 13.5375 14.7075 14.1225 14.1225C14.7075 13.5375 15 12.83 15 12C15 11.17 14.7075 10.4625 14.1225 9.8775C13.5375 9.2925 12.83 9 12 9C11.17 9 10.4625 9.2925 9.8775 9.8775C9.2925 10.4625 9 11.17 9 12C9 12.83 9.2925 13.5375 9.8775 14.1225Z" fill="#D91A23"/>
</g>
<defs>
<filter id="filter0_dd_12_354" x="-2" y="0" width="28" height="28" filterUnits="userSpaceOnUse" color-interpolation-filters="sRGB">
<feFlood flood-opacity="0" result="BackgroundImageFix"/>
<feColorMatrix in="SourceAlpha" type="matrix" values="0 0 0 0 0 0 0 0 0 0 0 0 0 0 0 0 0 0 127 0" result="hardAlpha"/>
<feOffset dy="2"/>
<feGaussianBlur stdDeviation="2"/>
<feColorMatrix type="matrix" values="0 0 0 0 0 0 0 0 0 0 0 0 0 0 0 0 0 0 0.15 0"/>
<feBlend mode="normal" in2="BackgroundImageFix" result="effect1_dropShadow_12_354"/>
<feColorMatrix in="SourceAlpha" type="matrix" values="0 0 0 0 0 0 0 0 0 0 0 0 0 0 0 0 0 0 127 0" result="hardAlpha"/>
<feOffset dy="1"/>
<feGaussianBlur stdDeviation="0.5"/>
<feColorMatrix type="matrix" values="0 0 0 0 0 0 0 0 0 0 0 0 0 0 0 0 0 0 0.3 0"/>
<feBlend mode="normal" in2="effect1_dropShadow_12_354" result="effect2_dropShadow_12_354"/>
<feBlend mode="normal" in="SourceGraphic" in2="effect2_dropShadow_12_354" result="shape"/>
</filter>
<clipPath id="clip0_12_354">
<rect width="24" height="24" fill="white"/>
</clipPath>
</defs>
</svg>
