<svg width="42" height="42" viewBox="12 9 42 42" fill="none" xmlns="http://www.w3.org/2000/svg">
    <g id="&#235;&#130;&#180;&#236;&#156;&#132;&#236;&#185;&#152;&#236;&#157;&#180;&#235;&#143;&#153;">
        <rect x="12" y="9" width="42" height="42" rx="21" fill="white"/>
        <g id="Vector">
            <path d="M42.3094 28.9587C41.8304 24.6163 38.3836 21.1696 34.0413 20.6906V18.5454H31.9587V20.6906C27.6163 21.1696 24.1696 24.6163 23.6906 28.9587H21.5454V31.0413H23.6906C24.1696 35.3836 27.6163 38.8304 31.9587 39.3094V41.4545H34.0413V39.3094C38.3836 38.8304 41.8304 35.3836 42.3094 31.0413H44.4545V28.9587H42.3094ZM33 37.2892C28.9701 37.2892 25.7107 34.0299 25.7107 30C25.7107 25.9701 28.9701 22.7107 33 22.7107C37.0299 22.7107 40.2892 25.9701 40.2892 30C40.2892 34.0299 37.0299 37.2892 33 37.2892Z"
                  fill="#796BAF"/>
            <path d="M30.9173 30C30.9173 28.8493 31.8493 27.9173 33 27.9173C34.1506 27.9173 35.0826 28.8493 35.0826 30C35.0826 31.1506 34.1506 32.0826 33 32.0826C31.8493 32.0826 30.9173 31.1506 30.9173 30Z"
                  fill="#796BAF"/>
        </g>
    </g>
</svg>
