<svg width="169" height="34" viewBox="0 0 169 34" fill="none" xmlns="http://www.w3.org/2000/svg">
<path d="M95.6978 0C93.1558 0 91.0639 2.06542 91.0639 4.63396C91.0639 7.17601 93.1293 9.24143 95.6978 9.24143C98.2399 9.24143 100.332 7.17601 100.332 4.63396C100.332 2.06542 98.2399 0 95.6978 0Z" fill="#B0ACD5"/>
<path d="M120.377 18.5093H104.966C102.424 18.5093 100.332 16.4439 100.332 13.8754V7.73209C100.332 5.19003 102.397 3.09813 104.966 3.09813H120.377C121.224 3.09813 121.913 3.7866 121.913 4.63396C121.913 5.48131 121.224 6.16978 120.377 6.16978H104.966C104.118 6.16978 103.43 6.85826 103.43 7.70561V13.8754C103.43 14.7227 104.118 15.4112 104.966 15.4112H120.377C121.224 15.4112 121.913 16.1262 121.913 16.947C121.913 17.8209 121.224 18.5093 120.377 18.5093Z" fill="black"/>
<path d="M117.279 9.26791C118.126 9.26791 118.815 9.95639 118.815 10.8037C118.815 11.6511 118.126 12.3396 117.279 12.3396H108.037C107.19 12.3396 106.502 11.6246 106.502 10.8037C106.502 9.95639 107.19 9.26791 108.037 9.26791H117.279Z" fill="#827DA9"/>
<path d="M69.4564 7.73209C69.4564 5.19003 71.5218 3.09813 74.0903 3.09813H86.4299C88.972 3.09813 91.0639 5.16355 91.0639 7.73209C91.0639 10.2741 88.9984 12.366 86.4299 12.366H80.2601C79.4128 12.366 78.7243 13.0545 78.7243 13.9019C78.7243 14.7492 79.4393 15.4377 80.2601 15.4377H89.5016C90.3489 15.4377 91.0374 16.1262 91.0374 16.9735C91.0374 17.8209 90.3489 18.5093 89.5016 18.5093H80.2601C77.7181 18.5093 75.6262 16.4174 75.6262 13.8754C75.6262 11.3333 77.6916 9.24143 80.2601 9.24143H86.4299C87.2773 9.24143 87.9657 8.52648 87.9657 7.70561C87.9657 6.85826 87.2773 6.16978 86.4299 6.16978H74.0903C73.243 6.16978 72.5545 6.85826 72.5545 7.70561C72.5545 9.55919 72.5545 16.1262 72.5545 16.9735C72.5545 17.8209 71.8661 18.5093 71.0187 18.5093C70.1713 18.5093 69.4829 17.7944 69.4829 16.9735V7.73209H69.4564Z" fill="black"/>
<path d="M97.2337 17C97.2337 17.8474 96.5187 18.5358 95.6978 18.5358C94.8505 18.5358 94.162 17.8209 94.162 17V4.63396C94.162 3.7866 94.8505 3.09813 95.6978 3.09813C96.5452 3.09813 97.2337 3.7866 97.2337 4.63396V17Z" fill="black"/>
<path d="M64.8224 12.366C65.6698 12.366 66.3583 11.6511 66.3583 10.8302C66.3583 9.98287 65.6698 9.29439 64.8224 9.29439H52.4829C51.6355 9.29439 50.947 9.98287 50.947 10.8302C50.947 11.6776 51.6355 12.366 52.4829 12.366H64.8224Z" fill="#827DA9"/>
<path d="M145.083 4.63396V12.366C145.083 15.7555 142.302 18.5358 138.913 18.5358C135.523 18.5358 132.743 15.7819 132.743 12.366V9.26791C132.743 7.54673 131.34 6.16978 129.645 6.16978C127.95 6.16978 126.547 7.54673 126.547 9.26791V16.9735C126.547 17.8209 125.858 18.5093 125.011 18.5093C124.164 18.5093 123.475 17.8209 123.475 16.9735V9.26791C123.475 5.85203 126.255 3.09813 129.645 3.09813C133.061 3.09813 135.815 5.85203 135.815 9.26791V12.366C135.815 14.0607 137.218 15.4377 138.913 15.4377C140.607 15.4377 142.011 14.0607 142.011 12.366V4.63396C142.011 3.7866 142.699 3.09813 143.547 3.09813C144.394 3.09813 145.083 3.7866 145.083 4.63396Z" fill="black"/>
<path d="M32.4112 13.9019C32.4112 14.7492 33.0997 15.4377 33.947 15.4377C34.7944 15.4377 35.4829 14.7227 35.4829 13.9019V7.73209L42.1293 1.08567C42.3941 0.794392 42.8178 0.635514 43.215 0.635514C44.0623 0.635514 44.7508 1.35047 44.7508 2.17134C44.7508 2.59502 44.5919 2.99221 44.3006 3.28349L38.581 9.00312V13.9019C38.581 16.4439 36.5156 18.5358 33.947 18.5358C31.405 18.5358 29.3131 16.4439 29.3131 13.9019V9.00312L23.5935 3.28349C23.3022 2.99221 23.1433 2.59502 23.1433 2.17134C23.1433 1.32399 23.8583 0.635514 24.6791 0.635514C25.0763 0.635514 25.5 0.794392 25.7648 1.08567L32.4112 7.73209V13.9019Z" fill="#7670B3"/>
<path d="M0 2.17134C0 1.32399 0.688474 0.635514 1.53583 0.635514C1.93302 0.635514 2.33022 0.794392 2.6215 1.08567L9.24143 7.73209V13.9019C9.24143 14.7492 9.95639 15.4377 10.7773 15.4377C11.6246 15.4377 12.3131 14.7227 12.3131 13.9019V7.73209L18.9595 1.08567C19.2508 0.794392 19.648 0.635514 20.0452 0.635514C20.8925 0.635514 21.581 1.35047 21.581 2.17134V16.9735C21.581 17.8209 20.8925 18.5093 20.0452 18.5093C19.1978 18.5093 18.5093 17.7944 18.5093 16.9735V5.90498L15.4112 9.00312V13.9019C15.4112 16.4439 13.3458 18.5358 10.7773 18.5358C8.2352 18.5358 6.1433 16.4439 6.1433 13.9019V9.00312L3.09813 5.90498V16.9735C3.09813 17.8209 2.38318 18.5093 1.56231 18.5093C0.688474 18.5358 0 17.8209 0 17V2.17134Z" fill="#B0ACD5"/>
<path d="M50.947 3.09813C48.405 3.09813 46.3131 5.16355 46.3131 7.73209C46.3131 10.6978 46.3131 13.6106 46.3131 17C46.3131 17.8474 47.0016 18.5358 47.8489 18.5358C48.6963 18.5358 49.3847 17.8209 49.3847 17V7.73209C49.3847 6.88474 50.0732 6.19626 50.9206 6.19626H66.3318C67.1791 6.19626 67.8676 5.48131 67.8676 4.66044C67.8676 3.81308 67.1791 3.12461 66.3318 3.12461H50.947V3.09813Z" fill="black"/>
<path d="M86.5623 24.4143C86.8536 24.4143 88.0716 24.4143 89.0779 24.4143C89.581 24.3878 89.581 23.6199 89.0779 23.6199H86.5623V24.4143ZM85.715 24.1495C85.715 25.7383 85.715 30.028 85.715 33.5763V33.6028C85.7414 34.1059 86.4829 34.1059 86.5093 33.6028V24.4143C86.5358 24.4143 86.5358 24.4143 86.5623 24.4143C86.6417 24.4143 86.5888 24.4143 86.5093 24.4143C86.5358 24.4143 86.5358 24.4143 86.5623 24.4143V23.6199H86.2181C85.9533 23.6199 85.715 23.8583 85.715 24.1495Z" fill="#B0ACD5"/>
<path d="M111.374 33.1791C110.871 33.2056 110.871 33.9735 111.374 34C112.963 34 123.078 34 126.626 34H126.653C127.156 33.9735 127.156 33.2056 126.653 33.1791H111.374Z" fill="#7670B3"/>
<path d="M145.903 23.9907C145.877 23.4875 145.109 23.4875 145.109 23.9907C145.109 25.5794 145.109 27.0888 145.109 30.6636V30.69C145.136 31.1931 145.903 31.1931 145.903 30.69V23.9907Z" fill="#7670B3"/>
<path d="M143.706 24.1495C143.706 25.7383 143.706 27.1153 143.706 30.69V30.7165C143.679 31.2196 142.911 31.2196 142.885 30.7165V24.4143H142.858C142.752 24.4143 142.832 24.4143 142.885 24.4143C142.858 24.4143 142.858 24.4143 142.858 24.4143V23.5935H143.202C143.494 23.6199 143.706 23.8583 143.706 24.1495ZM142.858 24.4143C142.567 24.4143 141.349 24.4143 140.343 24.4143H140.316C139.813 24.3878 139.813 23.6199 140.316 23.5935H142.858V24.4143Z" fill="#7670B3"/>
<path d="M145.533 33.2056H130.651C130.651 33.0467 130.651 32.7555 130.651 32.1994V32.1729C130.651 32.1729 130.651 32.1729 130.651 32.1464V33.0997C130.651 33.1262 130.651 33.1262 130.651 33.1791C130.651 33.1791 130.651 33.1791 130.651 33.2056V34H145.533C146.062 33.9735 146.036 33.2056 145.533 33.2056ZM130.651 32.1464C130.625 31.6433 129.857 31.6433 129.83 32.1729L129.857 33.4969C129.883 33.7882 130.095 33.9735 130.36 34H130.651V33.2056C130.651 33.1262 130.651 33.0997 130.651 33.0997V32.1464Z" fill="#7670B3"/>
<path d="M107.031 23.9907C107.005 23.4875 106.237 23.4875 106.237 23.9907C106.237 25.5794 106.237 30.028 106.237 33.5763V33.6028C106.263 34.1059 107.031 34.1059 107.031 33.6028V23.9907Z" fill="#B0ACD5"/>
<path d="M95.8302 33.338C98.5312 33.338 100.702 31.1931 100.702 28.4393C100.702 25.6854 98.4252 23.6464 95.8302 23.6199V24.4408C98.1604 24.4408 99.8816 26.3738 99.8816 28.4393C99.8816 30.5047 98.2134 32.5436 95.8302 32.5436V33.338ZM90.9579 28.4393C90.9579 31.1402 93.1293 33.338 95.8302 33.338V32.5436C93.4735 32.5436 91.7788 30.5312 91.7788 28.4393C91.7788 26.3738 93.5265 24.4408 95.8302 24.4408V23.6199C93.2087 23.5935 90.9579 25.7383 90.9579 28.4393Z" fill="#B0ACD5"/>
<path d="M81.0545 31.7227V24.4143H81.0016V23.6199H81.3458C81.6371 23.6199 81.8489 23.8583 81.8489 24.1495V32.1199C81.8489 32.2523 81.8224 32.3583 81.69 32.4377C81.6106 32.5171 81.5312 32.5436 81.4252 32.5436H80.9751V31.7227H81.0545ZM81.0016 24.4143H75.6526V23.6199C76.9237 23.6199 78.1947 23.6199 79.3069 23.6199H81.0016V24.4143C80.9751 24.4143 80.9486 24.4143 81.0016 24.4143ZM75.6791 31.7227H81.028V32.5436H75.6791V31.7227ZM75.6791 24.4143H70.3302V23.6199C71.4953 23.6199 73.5607 23.6199 75.6791 23.6199V24.4143ZM70.3037 31.7227H75.6526V32.5436H70.3037V31.7227C70.3832 31.7227 70.3567 31.7227 70.3037 31.7227ZM70.2773 24.4143V31.7227H70.3037C70.2773 31.7227 70.2773 31.7227 70.2773 31.7227C70.3037 31.7227 70.3037 31.7227 70.3037 31.7227V32.5436H69.9595C69.6682 32.5171 69.4564 32.3053 69.4564 32.014V24.0171C69.4564 23.9112 69.5093 23.7788 69.5888 23.6994C69.6947 23.6199 69.7741 23.5935 69.9065 23.5935C70.0125 23.5935 70.1713 23.5935 70.3302 23.5935V24.4143H70.2773Z" fill="#B0ACD5"/>
<path d="M148.949 33.1791C148.445 33.2056 148.445 33.9735 148.949 34C150.537 34 160.653 34 164.227 34C164.731 33.9735 164.731 33.2056 164.227 33.1791H148.949Z" fill="#7670B3"/>
<path d="M149.425 24.4143H164.254C164.757 24.3878 164.757 23.6199 164.254 23.6199C162.798 23.6199 154.324 23.6199 151.146 23.6199H149.425V24.4143ZM149.425 31.0343C151.967 31.0343 160.917 31.0343 164.227 31.0343C164.731 31.0078 164.731 30.2399 164.227 30.2399H149.425V31.0343ZM149.372 30.2399V24.4143H149.399C149.505 24.4143 149.425 24.4143 149.372 24.4143C149.399 24.4143 149.399 24.4143 149.399 24.4143V23.6199H149.081C148.763 23.6199 148.578 23.8583 148.578 24.1495V30.6106C148.551 30.8489 148.737 31.0607 148.975 31.0343C149.081 31.0343 149.24 31.0343 149.425 31.0343V30.2399H149.372Z" fill="#7670B3"/>
<path d="M138.198 31.0343H138.674C139.178 31.0078 139.178 30.2399 138.674 30.2399C138.516 30.2399 138.357 30.2399 138.198 30.2399V31.0343ZM138.198 27.9891H138.648C138.886 27.9891 139.045 27.8302 139.045 27.5919V24.1495C139.019 23.8583 138.807 23.6199 138.542 23.6199H138.198V24.4143C138.118 24.4143 138.171 24.4143 138.251 24.4143V27.1682H138.198V27.9891ZM130.704 31.0343H138.224V30.2399C134.544 30.2399 134.702 30.2399 130.704 30.2399C130.731 30.2399 130.757 30.2399 130.704 30.2399V31.0343ZM130.704 27.9891H138.224V27.1947H130.704V27.9891ZM138.198 23.6199H130.678V24.4143H137.218C137.245 24.4143 137.245 24.4143 137.245 24.4143C137.748 24.4143 138.039 24.4143 138.198 24.4143V23.6199ZM129.83 27.5919V30.5312C129.857 30.8224 130.069 31.0343 130.333 31.0343H130.678V30.2399C130.651 30.2399 130.651 30.2399 130.651 30.2399H130.678C130.651 30.2399 130.651 30.2399 130.651 30.2399V27.9891H130.678V27.1947H130.227C130.016 27.1947 129.83 27.3271 129.83 27.5919ZM130.704 23.6199H130.227C129.724 23.6464 129.724 24.4143 130.227 24.4143H130.704V23.6199Z" fill="#7670B3"/>
<path d="M111.374 23.6199C110.871 23.6464 110.871 24.4143 111.374 24.4143C111.745 24.4143 112.486 24.4143 113.439 24.4143V28.9688C113.466 29.472 114.234 29.472 114.234 28.9688V24.4143C117.411 24.4143 124.561 24.4143 126.6 24.4143H126.626C127.129 24.3878 127.129 23.6199 126.626 23.6199C122.336 23.6199 115.717 23.6199 111.374 23.6199Z" fill="#7670B3"/>
<path d="M111.374 30.2399C110.871 30.2664 110.871 31.0343 111.374 31.0343H126.653C127.156 31.0078 127.156 30.2399 126.653 30.2399H124.587V25.6854C124.561 25.1822 123.793 25.1822 123.766 25.6854V30.2399H111.374Z" fill="#7670B3"/>
<path d="M157.449 3.09813C158.826 3.09813 159.938 3.09813 160.547 3.09813C164.81 3.09813 168.252 6.56698 168.252 10.8302C168.252 15.0935 164.81 18.5358 160.547 18.5358H157.449V15.4112H160.547C163.089 15.4112 165.181 13.3458 165.181 10.8037C165.181 8.26168 163.089 6.16978 160.547 6.16978H157.449V3.09813ZM146.645 16.9735V4.63396C146.645 3.7866 147.333 3.09813 148.181 3.09813C150.458 3.09813 154.509 3.09813 157.449 3.09813V6.19626H149.717V15.4377H157.449V18.5358H148.181C147.307 18.5093 146.645 17.8209 146.645 16.9735Z" fill="black"/>
</svg>
