<svg width="22" height="22" viewBox="0 0 22 22" fill="none" xmlns="http://www.w3.org/2000/svg">
<g id="ico" clip-path="url(#clip0_8_235)">
<path id="Vector" d="M1.10001 11C1.10001 12.3001 1.35608 13.5874 1.8536 14.7886C2.35112 15.9897 3.08035 17.0811 3.99965 18.0004C4.91895 18.9197 6.01032 19.6489 7.21144 20.1464C8.41256 20.6439 9.69992 20.9 11 20.9C12.3001 20.9 13.5874 20.6439 14.7886 20.1464C15.9897 19.6489 17.0811 18.9197 18.0004 18.0004C18.9197 17.0811 19.6489 15.9897 20.1464 14.7886C20.6439 13.5874 20.9 12.3001 20.9 11C20.9 9.69992 20.6439 8.41256 20.1464 7.21144C19.6489 6.01032 18.9197 4.91895 18.0004 3.99965C17.0811 3.08035 15.9897 2.35112 14.7886 1.8536C13.5874 1.35608 12.3001 1.10001 11 1.10001C9.69992 1.10001 8.41256 1.35608 7.21144 1.8536C6.01032 2.35112 4.91895 3.08035 3.99965 3.99965C3.08035 4.91895 2.35112 6.01032 1.8536 7.21144C1.35608 8.41256 1.10001 9.69992 1.10001 11Z" stroke="#4F4F4F" stroke-width="1.8" stroke-linecap="round" stroke-linejoin="round"/>
<path id="Vector_2" d="M7.7 8.8C7.7 9.67521 8.04767 10.5146 8.66654 11.1335C9.28541 11.7523 10.1248 12.1 11 12.1C11.8752 12.1 12.7146 11.7523 13.3334 11.1335C13.9523 10.5146 14.3 9.67521 14.3 8.8C14.3 7.92479 13.9523 7.08542 13.3334 6.46655C12.7146 5.84768 11.8752 5.5 11 5.5C10.1248 5.5 9.28541 5.84768 8.66654 6.46655C8.04767 7.08542 7.7 7.92479 7.7 8.8Z" stroke="#4F4F4F" stroke-width="1.8" stroke-linecap="round" stroke-linejoin="round"/>
<path id="Vector_3" d="M4.58479 18.5339C4.85705 17.6277 5.41416 16.8335 6.17346 16.269C6.93277 15.7044 7.85382 15.3997 8.79999 15.4H13.2C14.1474 15.3997 15.0696 15.7051 15.8294 16.271C16.5893 16.8368 17.1462 17.6328 17.4174 18.5405" stroke="#4F4F4F" stroke-width="1.8" stroke-linecap="round" stroke-linejoin="round"/>
</g>
<defs>
<clipPath id="clip0_8_235">
<rect width="22" height="22" fill="white"/>
</clipPath>
</defs>
</svg>
