<svg width="50" height="50" viewBox="0 0 50 50" fill="none" xmlns="http://www.w3.org/2000/svg">
<g id="icon">
<path id="Vector" d="M25 13C17.2727 13 10.6736 17.7687 8 24.5C10.6736 31.2313 17.2727 36 25 36C32.7273 36 39.3264 31.2313 42 24.5C39.3264 17.7687 32.7273 13 25 13ZM25 32.1667C20.7345 32.1667 17.2727 28.732 17.2727 24.5C17.2727 20.268 20.7345 16.8333 25 16.8333C29.2655 16.8333 32.7273 20.268 32.7273 24.5C32.7273 28.732 29.2655 32.1667 25 32.1667ZM25 19.9C22.4345 19.9 20.3636 21.9547 20.3636 24.5C20.3636 27.0453 22.4345 29.1 25 29.1C27.5655 29.1 29.6364 27.0453 29.6364 24.5C29.6364 21.9547 27.5655 19.9 25 19.9Z" fill="#8781BD"/>
</g>
</svg>
