<svg width="50" height="50" viewBox="0 0 50 50" fill="none" xmlns="http://www.w3.org/2000/svg">
<path d="M24.9868 15.7539C24.1235 15.7539 23.3845 15.4478 22.7698 14.8354C22.1551 14.223 21.8477 13.4869 21.8477 12.6269C21.8477 11.767 22.1551 11.0309 22.7698 10.4185C23.3845 9.80612 24.1235 9.49994 24.9868 9.49994C25.85 9.49994 26.589 9.80612 27.2037 10.4185C27.8185 11.0309 28.1258 11.767 28.1258 12.6269C28.1258 13.4869 27.8185 14.223 27.2037 14.8354C26.589 15.4478 25.85 15.7539 24.9868 15.7539ZM32.8344 40.7699V32.9524H24.9868C24.1235 32.9524 23.3845 32.6463 22.7698 32.0339C22.1551 31.4215 21.8477 30.6854 21.8477 29.8254V20.4444C21.8477 19.5845 22.1551 18.8484 22.7698 18.236C23.3845 17.6236 24.1235 17.3174 24.9868 17.3174C25.6146 17.3174 26.1574 17.4542 26.6151 17.7279C27.0729 18.0015 27.5634 18.4379 28.0866 19.0373C29.5253 20.7571 30.8267 21.9363 31.9908 22.5747C33.1549 23.2131 34.4825 23.5454 35.9735 23.5714V26.6984C34.5871 26.6984 33.1876 26.3988 31.775 25.7994C30.3624 25.2001 29.146 24.4835 28.1258 23.6496V29.0437H32.8344C33.6977 29.0437 34.4367 29.3499 35.0514 29.9622C35.6661 30.5746 35.9735 31.3108 35.9735 32.1707V40.7699H32.8344ZM21.8477 40.7699C19.6765 40.7699 17.8257 40.0077 16.2954 38.4833C14.7651 36.9589 14 35.1153 14 32.9524C14 31.0762 14.5951 29.4215 15.7853 27.9883C16.9756 26.5551 18.4732 25.6561 20.2781 25.2913V28.4965C19.3626 28.8613 18.6105 29.4411 18.0219 30.2359C17.4334 31.0306 17.1391 31.9362 17.1391 32.9524C17.1391 34.2554 17.5969 35.3628 18.5124 36.2749C19.428 37.1869 20.5397 37.6429 21.8477 37.6429C22.8679 37.6429 23.7769 37.3498 24.5748 36.7635C25.3726 36.1772 25.9546 35.428 26.3209 34.5159H29.5384C29.1722 36.314 28.2697 37.8058 26.831 38.9915C25.3922 40.1771 23.7311 40.7699 21.8477 40.7699Z" fill="#8781BD"/>
</svg>
